<?xml version="1.0" encoding="UTF-8"?>
<!DOCTYPE svg PUBLIC "-//W3C//DTD SVG 1.1//EN" "http://www.w3.org/Graphics/SVG/1.1/DTD/svg11.dtd">
<!-- Creator: CorelDRAW -->
<svg xmlns="http://www.w3.org/2000/svg" xml:space="preserve" width="61.038mm" height="14.3596mm" style="shape-rendering:geometricPrecision; text-rendering:geometricPrecision; image-rendering:optimizeQuality; fill-rule:evenodd; clip-rule:evenodd"
viewBox="0 0 60.8546 14.3164"
 xmlns:xlink="http://www.w3.org/1999/xlink">
 <defs>
  <style type="text/css">
   <![CDATA[
    .str0 {stroke:black;stroke-width:0.075971;stroke-linecap:round;stroke-linejoin:round}
    .str3 {stroke:#790000;stroke-width:0.075971}
    .str2 {stroke:#790000;stroke-width:0.0996995}
    .str1 {stroke:#790000;stroke-width:0.199399}
    .fil1 {fill:#000066}
    .fil4 {fill:#C21919}
    .fil0 {fill:red}
    .fil3 {fill:#FF4646}
    .fil2 {fill:url(#id0)}
   ]]>
  </style>
  <linearGradient id="id0" gradientUnits="userSpaceOnUse" x1="46.5304" y1="7.75313" x2="54.2861" y2="7.75313">
   <stop offset="0" style="stop-color:red"/>
   <stop offset="1" style="stop-color:white"/>
  </linearGradient>
 </defs>
 <g id="Capa_x0020_1">
  <metadata id="CorelCorpID_0Corel-Layer"/>
  <g id="_122121168">
   <path id="_120789736" class="fil0 str0" d="M0.0378858 10.7905c3.59028,-0.0733788 7.18544,-0.106479 10.7756,-0.0994004 3.58071,0.00947145 7.1637,0.0568287 10.7467,0.141972 4.73552,0.11595 9.46866,0.319537 14.1993,0.551438 6.65145,0.326516 13.3005,0.747746 19.9374,1.26369 0.111165,-0.00478557 0.202988,0.0851433 0.198103,0.194015 -0.00478557,0.127815 -0.135292,0.210665 -0.258521,0.163308l0 0 -0.790018 -0.0213357 -3.01282 -0.137286c-1.44724,-0.0662004 -2.89687,-0.113558 -4.3441,-0.167994 -3.9817,-0.151443 -7.95851,-0.298201 -11.9402,-0.414152 -5.80341,-0.167994 -11.6165,-0.248451 -17.4175,-0.0544359 -5.15107,0.170386 -10.2901,0.511159 -15.4169,1.01763 -0.374571,-0.42123 -0.768384,-0.82591 -1.18632,-1.20686 -0.473572,-0.440173 -0.968879,-0.847246 -1.49071,-1.23059z"/>
   <path id="_120789472" class="fil1 str0" d="M6.55155 13.3179c2.83166,-0.314751 5.673,-0.549045 8.51912,-0.705274 3.92128,-0.215251 7.84984,-0.248451 11.7784,-0.201094 3.02967,0.035493 6.05704,0.113558 9.08681,0.189329 3.63135,0.0899289 7.26271,0.1657 10.8941,0.274473 3.44053,0.104186 6.88096,0.224822 10.3166,0.442566 1.1622,0.0733788 2.3219,0.156229 3.4816,0.246158 0.0870376,0.00697896 0.149749,0.0827505 0.14257,0.167994 -0.00727806,0.0899289 -0.0918232,0.153737 -0.183646,0.139579 -2.26627,-0.101793 -4.53254,-0.194015 -6.7988,-0.276865 -3.60234,-0.132501 -7.20717,-0.231901 -10.8119,-0.331301 -4.21121,-0.11595 -8.42251,-0.186936 -12.6337,-0.220037 -5.19215,-0.0402786 -10.3891,-0.00239279 -15.5619,0.414052 -2.50784,0.203586 -5.01099,0.475666 -7.50428,0.821224 -0.0508467,-0.144365 -0.120836,-0.281651 -0.202988,-0.409466 -0.137685,-0.212958 -0.314053,-0.399895 -0.521927,-0.551338z"/>
   <path id="_120789448" class="fil0 str1" d="M56.6489 7.37567c0.0845451,-2.0565 -0.988121,-3.9142 -2.81471,-4.87261 -1.82649,-0.958411 -4.12666,-0.868482 -6.0378,0.229608 -1.91104,1.09799 -3.13844,3.04562 -3.22059,5.10212 -0.0821524,2.0564 0.988221,3.9141 2.81471,4.87251 1.82659,0.958411 4.12666,0.868482 6.0378,-0.229508 1.91114,-1.09809 3.13844,-3.04572 3.22059,-5.10212z"/>
   <path id="_120790528" class="fil2 str2" d="M54.2136 7.55074c0.0724815,-1.2921 -0.582245,-2.44692 -1.72271,-3.03146 -1.14036,-0.584438 -2.58999,-0.506374 -3.80284,0.203586 -1.21294,0.70996 -2.00775,1.94045 -2.08272,3.23256 -0.0748743,1.2921 0.582345,2.44692 1.72271,3.03146 1.14036,0.584538 2.58999,0.506473 3.80533,-0.203487 1.21284,-0.707567 2.00535,-1.94055 2.08023,-3.23266z"/>
   <path id="_120789280" class="fil0 str3" d="M52.2152 7.65253c0.031505,-0.719431 -0.331002,-1.36778 -0.954323,-1.69918 -0.623321,-0.331301 -1.40855,-0.300494 -2.06328,0.0876358 -0.654726,0.38803 -1.07755,1.06958 -1.10906,1.78901 -0.0314053,0.719431 0.331102,1.36788 0.95193,1.69918 0.623421,0.333594 1.40865,0.300494 2.06338,-0.0876358 0.654726,-0.38803 1.07755,-1.06958 1.11135,-1.78901z"/>
   <path id="_120789184" class="fil3" d="M51.452 7.68563c0.0193417,-0.451938 -0.210266,-0.861403 -0.601686,-1.06958 -0.39132,-0.208272 -0.886627,-0.189329 -1.29739,0.0543362 -0.413155,0.243765 -0.678854,0.674467 -0.700588,1.1265 -0.0218342,0.451938 0.210166,0.861403 0.601587,1.06958 0.39132,0.208272 0.886627,0.189329 1.29978,-0.0544359 0.410762,-0.243665 0.67656,-0.674367 0.698295,-1.1264z"/>
   <path id="_122123064" class="fil4 str3" d="M49.1809 5.56532c0,-0.0663001 -0.0361909,-0.127815 -0.094216,-0.158522 -0.0579254,-0.0308071 -0.130507,-0.0331999 -0.188432,0 -0.0580251,0.0331002 -0.094216,0.092222 -0.094216,0.158522 0,0.0663001 0.0361909,0.127715 0.094216,0.158522 0.0579254,0.0307074 0.130507,0.0331002 0.188432,0 0.0580251,-0.0331002 0.094216,-0.092222 0.094216,-0.158522zm-1.22012 1.53587c0,-0.0663001 -0.0361909,-0.127815 -0.094216,-0.158622 -0.0579254,-0.0308071 -0.130507,-0.0331002 -0.188432,0 -0.0580251,0.0331002 -0.094216,0.0923217 -0.094216,0.158622 0,0.0662004 0.0361909,0.127715 0.094216,0.158522 0.0579254,0.0307074 0.130507,0.0331002 0.188432,0 0.0580251,-0.0331999 0.094216,-0.0923217 0.094216,-0.158522zm0.0773668 2.26707c0,-0.0663001 -0.0362906,-0.127815 -0.094216,-0.158622 -0.0580251,-0.0308071 -0.130507,-0.0331002 -0.188532,0 -0.0579254,0.0331002 -0.094216,0.0923217 -0.094216,0.158622 0,0.0662004 0.0362906,0.127715 0.094216,0.158522 0.0580251,0.0307074 0.130507,0.0331002 0.188532,0 0.0579254,-0.0331999 0.094216,-0.0923217 0.094216,-0.158522zm2.31452 1.00098c0,-0.0663001 -0.0361909,-0.127815 -0.094216,-0.158522 -0.0579254,-0.0308071 -0.130407,-0.0331999 -0.188432,0 -0.0579254,0.0331002 -0.094216,0.092222 -0.094216,0.158522 0,0.0662004 0.0362906,0.127815 0.094216,0.158522 0.0580251,0.0308071 0.130507,0.0331999 0.188432,0 0.0580251,-0.0331002 0.094216,-0.0923217 0.094216,-0.158522zm2.23496 -1.34176c0,-0.0663001 -0.0362906,-0.127815 -0.0943157,-0.158622 -0.0579254,-0.0307074 -0.130407,-0.0331002 -0.188432,0 -0.0579254,0.0331002 -0.094216,0.0923217 -0.094216,0.158622 0,0.0662004 0.0362906,0.127715 0.094216,0.158522 0.0580251,0.0307074 0.130507,0.0331002 0.188432,0 0.0580251,-0.0331999 0.0943157,-0.0923217 0.0943157,-0.158522zm0.565296 -2.36417c0,-0.0662004 -0.0361909,-0.127715 -0.094216,-0.158522 -0.0580251,-0.0308071 -0.130507,-0.0331002 -0.188432,0 -0.0580251,0.0331002 -0.094216,0.0923217 -0.094216,0.158522 0,0.0663001 0.0361909,0.127815 0.094216,0.158622 0.0579254,0.0307074 0.130407,0.0331002 0.188432,0 0.0580251,-0.0331999 0.094216,-0.0923217 0.094216,-0.158622zm-1.77335 -1.60915c0,-0.0663001 -0.0362906,-0.127815 -0.0943157,-0.158522 -0.0579254,-0.0308071 -0.130407,-0.0331999 -0.188432,0 -0.0579254,0.0331002 -0.094216,0.092222 -0.094216,0.158522 0,0.0663001 0.0362906,0.127815 0.094216,0.158522 0.0580251,0.0307074 0.130507,0.0331002 0.188432,0 0.0580251,-0.0331002 0.0943157,-0.092222 0.0943157,-0.158522z"/>
   <g>
    <polygon id="_122122992" class="fil1" points="29.0863,6.60648 30.4901,6.65623 30.9781,5.0423 29.5672,4.99973 29.4825,4.99734 28.9993,6.61606 "/>
    <polygon id="_122122920" class="fil1" points="27.8009,3.22727 27.7623,3.35269 25.7497,10.0852 28.0329,10.161 29.0863,6.60648 29.5672,4.99973 30.0479,3.39995 30.0769,3.29108 "/>
    <polygon id="_122122848" class="fil1" points="27.7623,3.35269 30.0479,3.39995 31.6232,3.45209 32.1281,1.75052 29.6638,1.67714 28.2648,1.63936 "/>
    <polygon id="_122122776" class="fil1" points="37.5889,5.94867 37.1949,7.07986 37.9269,7.0988 38.3347,5.9724 "/>
    <path id="_122122704" class="fil1" d="M38.5042 3.36216c-0.369686,0 -0.739371,0.056729 -1.09211,0.172679 -0.0700887,0.0213357 -0.140177,0.0449645 -0.207774,0.070986 -0.420433,0.1657 -0.794904,0.423623 -1.07755,0.771474 -0.166697,0.205879 -0.282748,0.449645 -0.398698,0.691017 -0.113558,0.236687 -0.207774,0.482745 -0.282648,0.733688l-0.604079 2.02559c-0.118343,0.38813 -0.241572,0.783339 -0.231901,1.18323 0.00727806,0.265101 0.0458617,0.532495 0.181154,0.75971 0.147455,0.246058 0.401091,0.414052 0.659612,0.548945 0.350344,0.187036 0.758713,0.222429 1.1597,0.239079 0.178761,0.00707866 0.357622,0.00468587 0.536383,-0.0166498 0.243965,-0.0236288 0.483243,-0.0662004 0.715144,-0.146658 0.30199,-0.101793 0.591916,-0.236687 0.833587,-0.440173 0.0458617,-0.0378858 0.0893307,-0.0780647 0.132899,-0.118343 0.234294,-0.212958 0.449345,-0.447252 0.611257,-0.719332 0.183646,-0.300594 0.27537,-0.643759 0.374471,-0.982139l0.11595 -0.395209 0.0386834 -0.118343 -0.00239279 0.00239279 -0.031505 0.00239279 -1.91832 -0.0685932 -0.120736 0 -0.277862 0.911054c-0.0724815,0.23898 -0.159519,0.475666 -0.289926,0.691017 -0.0314053,0.0520431 -0.0797596,0.0970076 -0.132899,0.125422 -0.0724815,0.0377861 -0.159519,0.0520431 -0.241671,0.0401789 -0.0917235,-0.0141573 -0.176368,-0.0591218 -0.241572,-0.125422 -0.147356,-0.158522 0.0386834,-0.395109 0.108672,-0.622324l0.451838 -1.49798 0.340673 -1.13119 0.0628107 -0.229508 0.0845451 -0.274572c0.0266198,-0.0828502 0.0532395,-0.167994 0.0846448,-0.248451 0.0603182,-0.163308 0.0531398,-0.362108 0.183547,-0.470881 0.0943157,-0.0781644 0.210166,-0.151543 0.323824,-0.120736 0.0893307,0.021236 0.161812,0.0851433 0.200496,0.165601 0.050747,0.104186 -0.0314053,0.227215 -0.0555326,0.347951 -0.024227,0.118343 -0.050747,0.234294 -0.0846448,0.350144l-0.154534 0.50418 -0.352836 1.1264 2.19628 0.0756719 0.280255 -0.920525c0.159419,-0.525416 0.372078,-1.0626 0.224723,-1.58083 -0.103987,-0.352537 -0.273077,-0.69331 -0.570281,-0.911054 -0.0990016,-0.0757716 -0.212559,-0.132501 -0.326117,-0.184643 -0.372078,-0.170386 -0.792511,-0.215251 -1.20557,-0.215251z"/>
    <polygon id="_122122632" class="fil1" points="41.9688,3.61062 39.8838,10.5349 42.0654,10.6058 43.467,5.92494 43.7253,5.16304 43.9549,4.31818 44.1915,3.6816 "/>
    <path id="_122122560" class="fil1" d="M44.6072 3.82128l-0.652334 0.496902 -0.11605 0.0780647 -0.22223 0.844853 0.108672 -0.0780647c0.024227,-0.070986 0.050747,-0.139679 0.0967085,-0.196508 0.0845451,-0.101693 0.207774,-0.165601 0.340673,-0.175072l0.043469 0.00707866 0.415547 -0.769082 -0.0144564 -0.208172z"/>
    <path id="_122122488" class="fil1" d="M45.4892 3.60344c-0.11595,0 -0.232001,0.0118642 -0.345558,0.0308071 -0.149749,0.0260216 -0.299597,0.0639074 -0.437282,0.130207 -0.0337981,0.0165501 -0.0675962,0.035493 -0.0990016,0.0568287l-0.401091 0.977254c0.0700887,0.0449645 0.130507,0.104086 0.176368,0.172779 0.166697,0.248451 -0.120836,0.553731 -0.215052,0.863796l-1.43757 4.80153 2.18651 0.0756719 1.44963 -4.86065c0.130507,-0.433094 0.352836,-0.85901 0.302089,-1.30158 -0.0290125,-0.243765 -0.0918232,-0.489823 -0.268192,-0.66021 -0.135292,-0.130207 -0.318939,-0.198801 -0.502485,-0.248551 -0.111165,-0.0283146 -0.227215,-0.0283146 -0.340773,-0.035493l-0.0337981 -0.00468587 -0.00239279 0.00229309 -0.0314053 0z"/>
    <path id="_122122416" class="fil1" d="M55.3152 8.62749l-0.00239279 0.00239279 -0.0991013 0.333694c-0.130407,0.440173 -0.326117,0.892111 -0.166697,1.31105 0.111165,0.291023 0.331002,0.525316 0.589523,0.707567 0.379356,0.269687 0.874663,0.295709 1.35063,0.314751 0.446953,0.0141573 0.922918,-0.0166498 1.34574,-0.189429 0.3648,-0.144365 0.700588,-0.352537 0.963994,-0.636481 0.321331,-0.347951 0.492914,-0.799889 0.608865,-1.25661 0.0990016,-0.395209 0.207774,-0.806967 0.0628107,-1.17855 -0.157027,-0.416445 -0.579852,-0.657817 -0.976058,-0.889818 -0.28514,-0.167994 -0.58713,-0.312358 -0.797396,-0.556024 -0.0869379,-0.101793 -0.154534,-0.215451 -0.173976,-0.343166 -0.0289128,-0.158522 0.0435687,-0.314751 0.103987,-0.466195 0.0458617,-0.125422 0.0869379,-0.260315 0.190825,-0.343166 0.0797596,-0.0663001 0.176368,-0.11595 0.280255,-0.11595l0.0241273 0c0.101494,0.00947145 0.190924,0.0662004 0.256128,0.144365 0.132899,0.160915 -0.0458617,0.390423 -0.120836,0.605774l-0.128014 0.373973 1.94015 0.0804575 0.118343 -0.399994c0.0773668,-0.257922 0.183646,-0.513552 0.166697,-0.778553 -0.0120636,-0.189329 -0.0555326,-0.376266 -0.149749,-0.539573 -0.132899,-0.227115 -0.374471,-0.37148 -0.616143,-0.496902 -0.352737,-0.184643 -0.765891,-0.203586 -1.16937,-0.217744 -0.451738,-0.014257 -0.908362,0.0118642 -1.33129,0.170386 -0.350244,0.130108 -0.683739,0.309966 -0.939767,0.572674 -0.323824,0.328909 -0.490521,0.766789 -0.608865,1.20925 -0.0918232,0.343166 -0.188432,0.695802 -0.0967085,1.03179 0.118443,0.426016 0.529205,0.69341 0.879449,0.984432 0.224723,0.182251 0.461509,0.347951 0.705573,0.508866 0.125621,0.0827505 0.272977,0.156129 0.340673,0.28863 0.0966088,0.191722 -0.0193417,0.416544 -0.0821524,0.634188 -0.050747,0.170386 -0.0870376,0.362108 -0.232001,0.463902 -0.10628,0.070986 -0.231901,0.111165 -0.355129,0.0946148 -0.0700887,-0.00707866 -0.144963,-0.0141573 -0.190924,-0.0639074 -0.0265201,-0.0307074 -0.043469,-0.070986 -0.050747,-0.111165 -0.043469,-0.246158 0.0846448,-0.48753 0.157126,-0.728903l0.128014 -0.442566 -1.9256 -0.0780647zm5.25257 -2.10137l0 0.00229309 0.00239279 -0.00229309 -0.00239279 0z"/>
    <path id="_122122344" class="fil0" d="M1.0284 6.0386l-0.00239279 0.00239279 -0.157027 0.598695c-0.140177,0.537181 -0.357622,1.08862 -0.188432,1.60676 0.120836,0.373973 0.352737,0.702881 0.66689,0.946646 0.432397,0.336087 1.01713,0.378659 1.57764,0.402287 0.56051,0.0213357 1.12102,-0.0520431 1.63328,-0.27218 0.415547,-0.179758 0.806967,-0.418837 1.09689,-0.75961 0.343066,-0.402287 0.485636,-0.925211 0.596701,-1.44355 0.145063,-0.667288 0.362507,-1.36548 0.0821524,-1.97355 -0.144963,-0.314751 -0.398598,-0.567988 -0.647448,-0.816439 -0.299597,-0.298201 -0.66689,-0.520631 -0.993007,-0.790417 -0.207774,-0.172779 -0.44456,-0.333694 -0.526712,-0.582145 -0.0748743,-0.222429 -0.0266198,-0.463902 0.0361909,-0.69341 0.0532395,-0.196408 0.103887,-0.40468 0.25862,-0.534888 0.108672,-0.0898292 0.234294,-0.18923 0.369586,-0.163208 0.0967085,0.0118642 0.186039,0.0615146 0.251342,0.134893 0.142471,0.156129 -0.00727806,0.392816 -0.0653031,0.612952l-0.176368 0.681545 2.2542 0.0520431 0.094216 -0.366794c0.135292,-0.525416 0.376964,-1.06728 0.171583,-1.55481 -0.135392,-0.324223 -0.393813,-0.579752 -0.688624,-0.780946 -0.434889,-0.295808 -0.990614,-0.324223 -1.5269,-0.340773 -0.526712,-0.0213357 -1.05831,0.035493 -1.54145,0.241372 -0.410762,0.172779 -0.790118,0.414152 -1.08244,0.74306 -0.379356,0.426016 -0.536383,0.986825 -0.66689,1.54056 -0.094216,0.399994 -0.198103,0.804674 -0.120736,1.20457 0.050747,0.267394 0.157027,0.520631 0.299597,0.752531 0.231901,0.376266 0.596801,0.653131 0.980943,0.885032 0.374471,0.227215 0.770677,0.468587 0.918033,0.866189 0.125621,0.340773 0.0314053,0.712253 -0.0482545,1.06968 -0.0459614,0.208172 -0.0991013,0.423523 -0.258521,0.560809 -0.11605,0.0994004 -0.219937,0.212958 -0.403484,0.177465 -0.11605,-0.0118642 -0.219937,-0.0733788 -0.294811,-0.160915 -0.149749,-0.175172 0.00967085,-0.430702 0.0700887,-0.669681l0.28514 -1.12172 -2.2543 -0.0544359zm6.06681 -2.99118l0 0.00229309 0.00239279 -0.00229309 -0.00239279 0z"/>
    <polygon id="_122122272" class="fil0" points="9.95768,5.05885 9.48162,6.19004 10.3598,6.20659 10.8489,5.07301 "/>
    <path id="_122122200" class="fil0" d="M10.99 2.44633c-0.376964,0 -0.751435,0.0496503 -1.10906,0.165601 -0.0772671,0.0236288 -0.152141,0.04975 -0.227016,0.0804575 -0.430103,0.172779 -0.821524,0.430702 -1.11873,0.778553 -0.176368,0.208272 -0.306775,0.449645 -0.427611,0.69341 -0.120836,0.241372 -0.210166,0.497002 -0.292319,0.752531l-0.649941 2.03516c-0.125621,0.390423 -0.265799,0.783239 -0.256128,1.19031 0.00727806,0.267494 0.0458617,0.537181 0.186039,0.764396 0.154634,0.253237 0.420433,0.416445 0.691017,0.553731 0.3648,0.184643 0.787626,0.212958 1.20317,0.227215 0.176368,0.00707866 0.362408,0.00707866 0.550939,-0.0118642 0.253635,-0.021236 0.504878,-0.0639074 0.74645,-0.144365 0.309268,-0.101693 0.596801,-0.257922 0.857714,-0.447252 0.050747,-0.0378858 0.101494,-0.0733788 0.152241,-0.113558 0.258521,-0.205879 0.463902,-0.463802 0.637877,-0.74306 0.188432,-0.30528 0.299597,-0.646052 0.403484,-0.989218l0.120836 -0.397601 0.0409765 -0.118244 -0.00239279 0.00229309 -0.0314053 0 -2.00047 -0.0544359 -0.125621 -0.00229309 -0.287533 0.915839c-0.0772671,0.248451 -0.118443,0.522924 -0.306875,0.700389 -0.0458617,0.0426714 -0.094216,0.0828502 -0.147356,0.11605 -0.0773668,0.0520431 -0.16909,0.0685932 -0.260913,0.056729 -0.0966088,-0.0165501 -0.176368,-0.0733788 -0.236786,-0.149051 -0.130507,-0.1657 0.0531398,-0.390523 0.120736,-0.608167l0.476065 -1.50985 0.357522 -1.13119 0.0773668 -0.243765 0.0918232 -0.274473c0.0289128,-0.0828502 0.0482545,-0.167994 0.0796599,-0.250844 0.0628107,-0.163308 0.0676959,-0.362009 0.200496,-0.470881 0.101594,-0.085243 0.217544,-0.158622 0.33828,-0.130207 0.0918232,0.0213357 0.166697,0.0828502 0.207774,0.165601 -0.00957115,0.118343 -0.0289128,0.234294 -0.0555326,0.350344 -0.0266198,0.120636 -0.0724815,0.234294 -0.108772,0.352537l-0.161812 0.515845 -0.367293 1.13358 2.28322 0.0639074 0.294712 -0.927604c0.166697,-0.527809 0.405976,-1.06499 0.25862,-1.58552 -0.101494,-0.362108 -0.277862,-0.707667 -0.584737,-0.925311 -0.103887,-0.0733788 -0.22223,-0.127815 -0.340673,-0.179858 -0.396206,-0.172779 -0.840765,-0.205879 -1.27805,-0.205879z"/>
    <path id="_122122128" class="fil0" d="M16.3047 5.49643l-0.00249249 0.00249249 0.00249249 -0.00249249zm1.89549 -2.92698c-0.136289,0.0123627 -0.269986,0.0345957 -0.40129,0.0716839 -0.550241,0.150845 -1.01713,0.501887 -1.30736,0.983934l-0.186837 1.83686 0 0.034496 0.0378858 -0.039481c0.0631098,-0.0666989 0.151443,-0.101394 0.234693,-0.143368 0.297902,-0.148353 0.630998,-0.195311 0.974263,-0.133498l0.678953 -2.57603 0.00757716 -0.0370882 -0.0352936 0 -0.00259219 0.00249249z"/>
    <path id="_122122056" class="fil0" d="M14.6817 2.5859l-0.695902 2.6528 -1.1621 4.44191 2.21313 0.070986 0.732093 -2.79956c0.118343,-0.452037 0.144863,-0.939468 0.408269,-1.32042 0.0628107,-0.0900286 0.132899,-0.177565 0.207774,-0.258022l0.0169489 -0.198801 0.164305 -1.59499 0.32851 -0.922918 -2.21303 -0.070986z"/>
    <path id="_122121984" class="fil0" d="M22.1379 2.99766c-0.334093,0.77616 -0.668186,1.55003 -0.999786,2.32629 -0.385239,0.901582 -0.751036,1.81274 -1.15582,2.70724l-0.846149 1.86478 1.70446 0.056729 3.38938 -6.88166 -2.09209 -0.0733788z"/>
    <polygon id="_122121912" class="fil0" points="18.9558,2.88411 18.156,7.8963 17.8588,9.84861 19.1829,9.89597 20.0212,8.03119 20.0888,7.68324 21.0287,2.95978 "/>
    <polygon id="_122121840" class="fil0" points="24.9597,2.94562 22.5968,10.019 24.7349,10.0971 27.1003,3.02608 "/>
    <polygon id="_122120976" class="fil0" points="25.4815,1.38851 25.107,2.51253 27.2429,2.59069 27.6221,1.46897 "/>
    <path id="_122121000" class="fil1" d="M35.5932 3.26994c-0.133996,0.0148552 -0.267892,0.0420732 -0.396804,0.0792611 -0.543462,0.15593 -1.01105,0.492615 -1.3269,0.953027l-0.242668 1.79977 -0.00508467 0.0345957 -0.00249249 0.00249249 0.0505476 -0.0420732c0.0681944,-0.0569284 0.151643,-0.0940166 0.232499,-0.133597 0.303286,-0.143667 0.644557,-0.190625 0.975559,-0.138682l0.748244 -2.51273 0.0125621 -0.0345957 -0.0429705 -0.00996995 -0.00249249 0.00249249z"/>
    <path id="_122121096" class="fil1" d="M32.1185 3.28639l-0.768284 2.59597 -1.29749 4.33304 2.18412 0.0733788 0.819131 -2.74273c0.130407,-0.43778 0.188432,-0.908761 0.449345,-1.28034 0.0628107,-0.0875361 0.140078,-0.165601 0.202988,-0.253137l0.0410762 -0.194115 0.198103 -1.56179 0.350344 -0.894504 -2.17933 -0.0757716z"/>
   </g>
  </g>
 </g>
</svg>
